<?xml version="1.0" encoding="utf-8"?>
<!-- Generator: Adobe Illustrator 19.0.0, SVG Export Plug-In . SVG Version: 6.00 Build 0)  -->
<svg version="1.1" id="Layer_1" xmlns="http://www.w3.org/2000/svg" xmlns:xlink="http://www.w3.org/1999/xlink" x="0px" y="0px"
	 viewBox="488 -387 1984 564" style="enable-background:new 488 -387 1984 564;" xml:space="preserve">
<style type="text/css">
	.st0{fill:#000000;}
</style>
<g>
	<g>
		<path class="st0" d="M777.5,63c-14.6-29.4-29-59.4-43.8-88.7c-27.5-54.8-54.3-110.1-82-164.9c-14.9-31.3-30.7-62.2-46.2-93.3
			c6.2-7.8,14.5-13.8,22.2-20.2c39.3-30.3,87.7-48.7,137.4-50.9c61.4-3.9,123.8,17.5,170.5,57.5c4.9,3.9,13.2,12.1,13.2,12.1
			s0.1,0.3-2.3,4.3L777.5,63z"/>
		<path class="st0" d="M958.8-274.5c63.3,67.3,80.9,172.8,44.4,257.4L997.6-5c-9.7-63.5-18.5-127.7-27.8-191.5
			C966.2-222.5,961.8-248.5,958.8-274.5z"/>
		<path class="st0" d="M594.5-272.3l0.6-0.5c-8.9,61.8-17.6,123.6-26.6,185.4c-3.6,26.5-8.3,56-11.5,82.4L555.8-8
			c-8.9-20.9-16.4-42.7-19.4-65.3c-10.1-60.5,4.4-124.4,39-174.9C580.9-256.7,587.4-264.8,594.5-272.3z"/>
		<path class="st0" d="M618.8-166.1l0.8,0.1c21.9,42.8,42.4,86.1,64.2,129c19.8,39.8,40,79.5,59.4,119.6c8.1,16.7,17,33,24.6,49.9
			c-21.5,0.5-42.6-4.9-63.2-10.5c-28.5-9.4-55.8-23.3-79.1-42.2c-10.3-8.9-29.7-27.7-29.7-27.7l-5.8-6.2c0,0,1.4-8.2,2.1-12.6
			C600.7-33.2,610.3-99.6,618.8-166.1z"/>
		<path class="st0" d="M933.7-163.1c0.4-0.1,1.1-0.2,1.5-0.3c3.3,31.7,8.7,63.2,12.6,95c5.7,38.6,10.6,77.3,16.2,116
			c-43.1,51.6-108.1,83.7-175.4,85c4.7-10.2,8-18.9,12.9-28.3c24.6-48.5,48.1-97.5,72.5-146C893.6-82.4,914.6-122.4,933.7-163.1z"/>
	</g>
	<g>
		<g>
			<path class="st0" d="M2218.1-251.9c19.3-2.4,38.9,4.2,53.9,16.4c30.1,23.2,34.6,71,11.9,100.8c-11.7,15-29,26.5-48.2,28.3
				c-20.3,3.6-41.8-2.1-57.7-15.2c-30.1-22.2-35.8-69-14.3-99.1C2175.2-239.2,2196.6-250.9,2218.1-251.9z M2212.8-237.5
				c-29.9,4.9-51.1,36.8-47,66.9c3,21.7,18.5,40.9,38.9,48.5c13.9,5.2,29.5,4,42.9-1.3c14.6-5.6,26.1-18.1,31.9-32.8
				c10.1-25.4,0.5-57.1-22.4-72.6C2244.4-237.5,2227.9-240,2212.8-237.5z"/>
		</g>
		<path class="st0" d="M1196.9-248.8c0.5,0,1.7,0,2.4,0c12.2,23.7,23.8,47.7,35.9,71.5c6.9,14,14.4,27.7,20.1,42.1c0.5,0,1.6,0,2,0
			c11.3-27.5,27-53.2,38.7-80.6c5.3-11,11-21.8,16.3-32.8c2.4-1.1,2.5,1.2,3,2.9c6.2,45.8,13.6,91.4,19.2,137.2c-3.3,0-9.8,0-13.1,0
			c-4.4-33.1-8.6-66.3-13.5-99.4c-7.5,9.4-11.3,22.4-16.9,33.2c-11.3,21.8-21.7,44.4-33.4,66.1c-0.5,0-1.7,0.1-2.3,0.1
			c-16.7-33-33.2-65.9-49.5-99.1c-0.5-0.1-1.6-0.3-2.1-0.4c-2.5,32.7-8.6,65.2-12.3,97.9c-2.8,2.9-10.7,2.6-13.9,0.1
			C1183.5-156.2,1190.4-202.4,1196.9-248.8z"/>
		<g>
			<path class="st0" d="M1411.7-248.5c5-2.1,5.4,4.9,7.5,7.8c20,44.2,41.4,87.9,61.2,132.3c-3.7,0-10.9,0-14.6,0
				c-7.3-15.2-15-30.5-21.7-46.1c-20.5-0.4-41.1-0.4-61.6,0c-6.6,14.6-13.4,29-20.1,43.6c-2.3,6.2-11.4,0.8-16,2.6
				c0.5-7.2,6.1-12.8,8.2-19.6C1373.7-168.2,1392.5-208.5,1411.7-248.5z M1412.9-218c-4.8,9.9-9.8,19.6-14,29.8
				c-2.8,6.8-7.8,12.8-8.9,20.3c15.5,0.1,31,0.1,46.5,0c0.3-4-2.8-7-4.1-10.6c-5.8-13.5-12.7-26.5-18.5-39.9L1412.9-218z"/>
		</g>
		<path class="st0" d="M1494.7-248.8c3.6,0,10.9,0,14.4,0c0,46.7,0.1,93.5,0,140.4c-3.2,0-9.7-0.1-12.8-0.1
			c-0.4-0.4-1.1-1.1-1.5-1.5C1494.5-156.3,1494.7-202.5,1494.7-248.8z"/>
		<path class="st0" d="M1537.1-248.8c2.8,0.3,3.8,0.9,5.8,3.6c29.9,34,59.5,68.6,89.4,102.6c0.4-35.4,0-70.8,0.3-106.2
			c3.6,0,10.9,0,14.4,0c-0.1,46.2,0.4,92.4-0.3,138.6c-0.9,2.6-3,0.7-4.5-0.1c-25.3-29.5-51.2-58.3-76.4-87.8
			c-5.2-4.8-8.6-10.9-14-15.2c-0.4,34,0.1,68.1-0.3,102.2c-0.9,6.2-10.9,0.7-14.4,2.6C1537.1-155.1,1537.1-202,1537.1-248.8z"/>
		<g>
			<path class="st0" d="M1729.4-248.6c0.9,0,2.6-0.1,3.6-0.1c8.1,15.6,15,31.8,22.5,47.7c14,31,29.5,61.3,42.6,92.6
				c-3.6,0-10.9-0.1-14.4-0.1c-6.2-13.6-13.5-26.7-19.2-40.5c-2.1-3.2-2.3-6-8.9-5.7c-18.4,0.1-36.8-0.4-55.2,0.1
				c-6.5,15.6-14.4,30.7-21.7,46.1c-3.6,0-10.9,0-14.6,0c1.3-8.9,7.8-16.3,11-24.8C1693-171.8,1711.8-210,1729.4-248.6z
				 M1730.8-217.9c-7.7,16.6-16.3,32.8-23,49.8c15.5,0.1,31.1,0.1,46.6,0c0-0.7-0.1-1.9-0.3-2.5c-7.2-16-14.7-32-22.4-47.8
				L1730.8-217.9z"/>
		</g>
		<path class="st0" d="M1809.9-248.8c24.2-0.1,48.6-0.1,72.8,0c-4.2,13.6-11.9,26.2-17.6,39.5c-13,28.9-27,57.2-39.6,86.2
			c18,0.4,36.2-0.3,54.2,0.3c2.9,4,4.5,14.3-6.4,14.4c-23-0.9-45.9,0.3-69-0.1c1.2-7,5.3-13.2,8.1-19.7
			c14.6-30.2,28.3-60.8,42.6-91.1c1.5-5.6,6.2-10.2,6.5-16c-17.2-0.4-34.4,0.3-51.6-0.1C1809.9-238.8,1809.9-245.4,1809.9-248.8z"/>
		<g>
			<path class="st0" d="M2026.7-108.5c-5.7,0.1-9.4,0.1-14.3,0.1c-2.5-4-3.8-6.8-5.6-10.2c-5-12.3-11.8-23.8-17.1-35.9
				c-20.1-0.4-40.4-0.3-60.5-0.1c-8.1,15.2-14.3,31.3-22.8,46.2c-3.7,0-11,0-14.6,0c20.9-47,44.5-93,65.3-140.1
				c2.1-0.3,5.3-1.1,5.4,2 M1960.6-218.2c-0.5,0-1.6,0-2.1,0c-6.5,17.2-16,33.1-22.9,50.1c16,0.1,31.9,0.1,47.9,0"/>
		</g>
		<g>
			<path class="st0" d="M2044.3-248.8c17.5,0.1,35-0.7,52.4,0.5c16,0.7,31.8,12.7,34.3,29c3.3,15.1-3.6,32.6-17.9,39.3
				c-8.7,5.2-19.3,5.3-29.3,5.4c0.1,0.5,0.4,1.6,0.5,2.1c14.3,17.5,27.9,35.6,41.7,53.6c2,3.6,6.4,6,7,10.3
				c-6.2-1.1-15.1,3.2-19.1-3.6c-16.6-20.5-31.9-42.2-48.9-62.4c-9.3-3.8-7,4.9-7.2,10.9c1.6,17.7,0.7,35.8,0.7,53.6
				c-3.2,2.8-10.9,2.6-14.2,0C2044-156.2,2044.3-202.4,2044.3-248.8z M2058.8-188c10.6,0.3,21.2,0,31.8,0c9.4,0,20.3-3.7,23.8-13.1
				c7-11.5,0.4-28.9-12.8-32.3c-13.8-3.7-28.5-1.7-42.5-1.9c-0.3,0.3-0.9,1.1-1.2,1.3"/>
		</g>
		<path class="st0" d="M2311.6-248.8c3.6,0,10.9,0.1,14.4,0.1c14.7,34.3,29.8,68.6,44,103c0.9,1.3,0.7,3.8,2.5,4.1
			c15.8-35.6,31.6-71.2,46.6-107.1c5.2-0.3,10.3-0.3,15.5-0.1c-20.3,45.3-39.6,92.7-59.6,138c-1.2,2.1-4,2-5.4-0.3
			c-17.5-42.6-36.4-84.6-54.4-127C2314.3-241.6,2311.6-244.8,2311.6-248.8z"/>
		<path class="st0" d="M1615.2-89.9c2,0,5.8,0,7.8,0c0.3,8.3-0.3,16.7,0.1,25.2c11,0.1,22-0.1,33,0.1v6.5c-11,0.1-22-0.1-33.1,0.1
			c-0.1,17.6,0,35.2-0.1,53c0.3,5.7-0.8,12.3,2.4,17.5c5.6,11.1,20.9,6.5,30.7,7.7v6.5c-11.1-0.5-25,3.3-33.5-6.2
			c-7.2-5.8-6.2-16-7.4-24.2C1615.1-32.5,1615.2-61.1,1615.2-89.9z"/>
		<path class="st0" d="M1697.7-66.8c17.9-2.5,37.1,7.3,45.7,23c-21.5,13.5-42.1,28.5-63.3,42.6c-3.3,3.4-7.9-4.6-3.6-6.2
			c19.1-12.1,37.5-25.3,56.1-38c2-2.8-3-4.5-4.9-6.1c-10.5-8.9-25.3-9.9-38.3-6.4c-15.4,5-26.5,20.7-26.6,36.8
			c-1.9,17.7,9.8,36.7,27.4,41.6c13.8,4.9,29.1,0.4,40.5-8.1c8.5-7.5,12.1-18.5,13.1-29.4c10.6-3.8,6.9,7.4,5.6,12.3
			c-4.5,17.1-19.5,31.1-37.2,33.2c-21.2,4.6-43.4-7.2-53-26.2c-4.5-12.1-6.2-25.6-1.5-37.7C1663.3-52.8,1679.9-65.2,1697.7-66.8z"/>
		<path class="st0" d="M1803.7-66.7c25.3-4.4,51.1,17.3,51.1,43c0,16.8,0.1,33.5,0,50.3h-6.5c-0.3-15.5,0.1-30.9,0-46.3
			c-1.2-16.2-10.3-33.2-26.6-38.1c-21.5-7.5-47.3,5.3-52.8,27.5c-3.2,13.5-1.7,29,8.2,39.5c11.4,11.4,29.5,16.8,44.9,11
			c6.9-2.1,12.7-6.6,18.4-10.9c2,5.4-0.8,9.3-5.3,11.9c-27.1,16-67.7,3.3-74.2-27.7C1753.4-33.8,1774.9-65.2,1803.7-66.7z"/>
		<path class="st0" d="M1873.9-31.2c-1.3-16.6,9.5-32.6,26.6-35.5c10.3-1.7,21.3,1.5,28.2,9c2,2.3,2.8,6.1,5.4,7.4
			c6.9-20.8,39.3-22.4,51.4-5.7c6.8,9.3,7,21.3,7.3,32.3c-0.1,16.8,0.1,33.5-0.1,50.3c-2,0-5.8,0-7.8,0c-0.3-22.5,2.8-45.2-0.3-67.4
			c-1.2-9-8.9-16.6-18.4-18.7c-13.9-3.2-28.6,7.3-29.1,21.3c-0.4,21.6,0.3,43.2-0.1,64.9c-2,0-5.8,0-7.8,0
			c-0.3-22.1,0.1-44.1-0.1-66.2c-1.6-10.2-9.9-19.7-20.7-20.5c-7.8-1.6-18.4,3-21.5,7.5c-3.6,5.3-6.2,11.7-5.6,18.3
			c-0.3,20.3,0.1,40.7-0.1,60.9c-8.6,0.8-7.8-0.1-7.7-5.6"/>
	</g>
</g>
</svg>
