<?xml version="1.0" encoding="utf-8"?>
<!-- Generator: Adobe Illustrator 19.0.0, SVG Export Plug-In . SVG Version: 6.00 Build 0)  -->
<svg version="1.1" id="Layer_1" xmlns="http://www.w3.org/2000/svg" xmlns:xlink="http://www.w3.org/1999/xlink" x="0px" y="0px"
	 viewBox="0 0 1008 824" style="enable-background:new 0 0 1008 824;" xml:space="preserve">
<style type="text/css">
	.st0{fill:#FDFDFD;}
</style>
<g>
	<path class="st0" d="M484.5,460.2C469,429,453.7,397.2,438,366c-29.2-58.2-57.6-116.9-87-175c-15.8-33.2-32.6-66-49-99
		c6.6-8.3,15.4-14.7,23.6-21.4c41.7-32.2,93.1-51.7,145.8-54c65.2-4.1,131.4,18.6,181,61c5.2,4.1,14,12.8,14,12.8s0.1,0.3-2.4,4.6
		c-12.1,24.8-24.2,49.6-36.7,74.3"/>
	<path class="st0" d="M677,101.9c67.2,71.4,85.9,183.4,47.1,273.2l-6,12.9c-10.3-67.4-19.6-135.6-29.5-203.3
		C684.8,157.1,680.1,129.5,677,101.9z"/>
	<path class="st0" d="M290.3,104.3l0.6-0.5c-9.5,65.6-18.7,131.2-28.2,196.8c-3.8,28.1-8.8,59.4-12.2,87.5l-1.3-3.3
		c-9.4-22.2-17.4-45.3-20.6-69.3c-10.7-64.2,4.7-132,41.4-185.7C275.8,120.8,282.7,112.2,290.3,104.3z"/>
	<path class="st0" d="M316.1,217l0.8,0.1c23.2,45.4,45,91.4,68.1,136.9c21,42.3,42.5,84.4,63,127c8.6,17.7,18,35,26.1,53
		c-22.8,0.5-45.2-5.2-67.1-11.1c-30.3-10-59.2-24.7-84-44.8c-10.9-9.4-31.5-29.4-31.5-29.4l-6.2-6.6c0,0,1.5-8.7,2.2-13.4
		C296.8,358.1,307,287.6,316.1,217z"/>
	<path class="st0" d="M650.3,220.2c0.4-0.1,1.2-0.2,1.6-0.3c3.5,33.7,9.2,67.1,13.4,100.8c6,41,11.2,82.1,17.2,123.1
		c-45.8,54.8-114.8,88.8-186.2,90.2c5-10.8,8.5-20.1,13.7-30c26.1-51.5,51.1-103.5,77-155C607.7,305.8,630,263.4,650.3,220.2z"/>
	<g>
		<path class="st0" d="M817.3,591.6c14.6-1.8,29.4,3.2,40.7,12.4c22.7,17.5,26.1,53.6,9,76.1c-8.8,11.3-21.9,20-36.4,21.4
			c-15.3,2.7-31.6-1.6-43.6-11.5c-22.7-16.8-27-52.1-10.8-74.8C784.9,601.2,801,592.4,817.3,591.6z M813.3,602.5
			c-22.6,3.7-38.6,27.8-35.5,50.5c2.3,16.4,14,30.9,29.4,36.6c10.5,3.9,22.3,3,32.4-1c11-4.2,19.7-13.7,24.1-24.8
			c7.6-19.2,0.4-43.1-16.9-54.8C837.1,602.5,824.7,600.6,813.3,602.5z"/>
	</g>
	<path class="st0" d="M46.1,594c0.4,0,1.3,0,1.8,0c9.2,17.9,18,36,27.1,54c5.2,10.6,10.9,20.9,15.2,31.8c0.4,0,1.2,0,1.5,0
		c8.5-20.8,20.4-40.2,29.2-60.9c4-8.3,8.3-16.5,12.3-24.8c1.8-0.8,1.9,0.9,2.3,2.2c4.7,34.6,10.3,69,14.5,103.6c-2.5,0-7.4,0-9.9,0
		c-3.3-25-6.5-50.1-10.2-75.1c-5.7,7.1-8.5,16.9-12.8,25.1c-8.5,16.5-16.4,33.5-25.2,49.9c-0.4,0-1.3,0.1-1.7,0.1
		c-12.6-24.9-25.1-49.8-37.4-74.8c-0.4-0.1-1.2-0.2-1.6-0.3c-1.9,24.7-6.5,49.2-9.3,73.9c-2.1,2.2-8.1,2-10.5,0.1
		C36,663.9,41.2,629,46.1,594z"/>
	<g>
		<path class="st0" d="M208.3,594.2c3.8-1.6,4.1,3.7,5.7,5.9c15.1,33.4,31.3,66.4,46.2,99.9c-2.8,0-8.2,0-11,0
			c-5.5-11.5-11.3-23-16.4-34.8c-15.5-0.3-31-0.3-46.5,0c-5,11-10.1,21.9-15.2,32.9c-1.7,4.7-8.6,0.6-12.1,2
			c0.4-5.4,4.6-9.7,6.2-14.8C179.6,654.8,193.8,624.4,208.3,594.2z M209.2,617.2c-3.6,7.5-7.4,14.8-10.6,22.5
			c-2.1,5.1-5.9,9.7-6.7,15.3c11.7,0.1,23.4,0.1,35.1,0c0.2-3-2.1-5.3-3.1-8c-4.4-10.2-9.6-20-14-30.1L209.2,617.2z"/>
	</g>
	<path class="st0" d="M271,594c2.7,0,8.2,0,10.9,0c0,35.3,0.1,70.6,0,106c-2.4,0-7.3-0.1-9.7-0.1c-0.3-0.3-0.8-0.8-1.1-1.1
		C270.8,663.8,271,628.9,271,594z"/>
	<path class="st0" d="M303,594c2.1,0.2,2.9,0.7,4.4,2.7c22.6,25.7,44.9,51.8,67.5,77.5c0.3-26.7,0-53.5,0.2-80.2c2.7,0,8.2,0,10.9,0
		c-0.1,34.9,0.3,69.8-0.2,104.7c-0.7,2-2.3,0.5-3.4-0.1c-19.1-22.3-38.7-44-57.7-66.3c-3.9-3.6-6.5-8.2-10.6-11.5
		c-0.3,25.7,0.1,51.4-0.2,77.2c-0.7,4.7-8.2,0.5-10.9,2C303,664.7,303,629.3,303,594z"/>
	<g>
		<path class="st0" d="M448.2,594.1c0.7,0,2-0.1,2.7-0.1c6.1,11.8,11.3,24,17,36c10.6,23.4,22.3,46.3,32.2,69.9
			c-2.7,0-8.2-0.1-10.9-0.1c-4.7-10.3-10.2-20.2-14.5-30.6c-1.6-2.4-1.7-4.5-6.7-4.3c-13.9,0.1-27.8-0.3-41.7,0.1
			c-4.9,11.8-10.9,23.2-16.4,34.8c-2.7,0-8.2,0-11,0c1-6.7,5.9-12.3,8.3-18.7C420.7,652.1,434.9,623.3,448.2,594.1z M449.3,617.3
			c-5.8,12.5-12.3,24.8-17.4,37.6c11.7,0.1,23.5,0.1,35.2,0c0-0.5-0.1-1.4-0.2-1.9c-5.4-12.1-11.1-24.2-16.9-36.1L449.3,617.3z"/>
	</g>
	<path class="st0" d="M509,594c18.3-0.1,36.7-0.1,55,0c-3.2,10.3-9,19.8-13.3,29.8c-9.8,21.8-20.4,43.2-29.9,65.1
		c13.6,0.3,27.3-0.2,40.9,0.2c2.2,3,3.4,10.8-4.8,10.9c-17.4-0.7-34.7,0.2-52.1-0.1c0.9-5.3,4-10,6.1-14.9
		c11-22.8,21.4-45.9,32.2-68.8c1.1-4.2,4.7-7.7,4.9-12.1c-13-0.3-26,0.2-39-0.1C509,601.5,509,596.5,509,594z"/>
	<g>
		<path class="st0" d="M672.7,699.9c-4.3,0.1-7.1,0.1-10.8,0.1c-1.9-3-2.9-5.1-4.2-7.7c-3.8-9.3-8.9-18-12.9-27.1
			c-15.2-0.3-30.5-0.2-45.7-0.1c-6.1,11.5-10.8,23.6-17.2,34.9c-2.8,0-8.3,0-11,0c15.8-35.5,33.6-70.2,49.3-105.8
			c1.6-0.2,4-0.8,4.1,1.5 M622.8,617.1c-0.4,0-1.2,0-1.6,0c-4.9,13-12.1,25-17.3,37.8c12.1,0.1,24.1,0.1,36.2,0"/>
	</g>
	<g>
		<path class="st0" d="M686,594c13.2,0.1,26.4-0.5,39.6,0.4c12.1,0.5,24,9.6,25.9,21.9c2.5,11.4-2.7,24.6-13.5,29.7
			c-6.6,3.9-14.6,4-22.1,4.1c0.1,0.4,0.3,1.2,0.4,1.6c10.8,13.2,21.1,26.9,31.5,40.5c1.5,2.7,4.8,4.5,5.3,7.8
			c-4.7-0.8-11.4,2.4-14.4-2.7c-12.5-15.5-24.1-31.9-36.9-47.1c-7-2.9-5.3,3.7-5.4,8.2c1.2,13.4,0.5,27,0.5,40.5
			c-2.4,2.1-8.2,2-10.7,0C685.8,663.9,686,629,686,594z M697,639.9c8,0.2,16,0,24,0c7.1,0,15.3-2.8,18-9.9
			c5.3-8.7,0.3-21.8-9.7-24.4c-10.4-2.8-21.5-1.3-32.1-1.4c-0.2,0.2-0.7,0.8-0.9,1"/>
	</g>
	<path class="st0" d="M887.9,594c2.7,0,8.2,0.1,10.9,0.1c11.1,25.9,22.5,51.8,33.2,77.8c0.7,1,0.5,2.9,1.9,3.1
		c11.9-26.9,23.9-53.8,35.2-80.9c3.9-0.2,7.8-0.2,11.7-0.1c-15.3,34.2-29.9,70-45,104.2c-0.9,1.6-3,1.5-4.1-0.2
		c-13.2-32.2-27.5-63.9-41.1-95.9C889.9,599.4,887.9,597,887.9,594z"/>
	<path class="st0" d="M362,714c1.5,0,4.4,0,5.9,0c0.2,6.3-0.2,12.6,0.1,19c8.3,0.1,16.6-0.1,24.9,0.1v4.9c-8.3,0.1-16.6-0.1-25,0.1
		c-0.1,13.3,0,26.6-0.1,40c0.2,4.3-0.6,9.3,1.8,13.2c4.2,8.4,15.8,4.9,23.2,5.8v4.9c-8.4-0.4-18.9,2.5-25.3-4.7
		c-5.4-4.4-4.7-12.1-5.6-18.3C361.9,757.3,362,735.7,362,714z"/>
	<path class="st0" d="M424.3,731.4c13.5-1.9,28,5.5,34.5,17.4C442.6,759,427,770.3,411,781c-2.5,2.6-6-3.5-2.7-4.7
		c14.4-9.1,28.3-19.1,42.4-28.7c1.5-2.1-2.3-3.4-3.7-4.6c-7.9-6.7-19.1-7.5-28.9-4.8c-11.6,3.8-20,15.6-20.1,27.8
		c-1.4,13.4,7.4,27.7,20.7,31.4c10.4,3.7,22,0.3,30.6-6.1c6.4-5.7,9.1-14,9.9-22.2c8-2.9,5.2,5.6,4.2,9.3
		c-3.4,12.9-14.7,23.5-28.1,25.1c-16,3.5-32.8-5.4-40-19.8c-3.4-9.1-4.7-19.3-1.1-28.5C398.3,742,410.8,732.6,424.3,731.4z"/>
	<path class="st0" d="M504.3,731.5c19.1-3.3,38.6,13.1,38.6,32.5c0,12.7,0.1,25.3,0,38l-4.9,0c-0.2-11.7,0.1-23.3,0-35
		c-0.9-12.2-7.8-25.1-20.1-28.8c-16.2-5.7-35.7,4-39.9,20.8c-2.4,10.2-1.3,21.9,6.2,29.8c8.6,8.6,22.3,12.7,33.9,8.3
		c5.2-1.6,9.6-5,13.9-8.2c1.5,4.1-0.6,7-4,9c-20.5,12.1-51.1,2.5-56-20.9C466.3,756.3,482.6,732.6,504.3,731.5z"/>
	<path class="st0" d="M557.3,758.3c-1-12.5,7.2-24.6,20.1-26.8c7.8-1.3,16.1,1.1,21.3,6.8c1.5,1.7,2.1,4.6,4.1,5.6
		c5.2-15.7,29.7-16.9,38.8-4.3c5.1,7,5.3,16.1,5.5,24.4c-0.1,12.7,0.1,25.3-0.1,38c-1.5,0-4.4,0-5.9,0c-0.2-17,2.1-34.1-0.2-50.9
		c-0.9-6.8-6.7-12.5-13.9-14.1c-10.5-2.4-21.6,5.5-22,16.1c-0.3,16.3,0.2,32.6-0.1,49c-1.5,0-4.4,0-5.9,0c-0.2-16.7,0.1-33.3-0.1-50
		c-1.2-7.7-7.5-14.9-15.6-15.5c-5.9-1.2-13.9,2.3-16.2,5.7c-2.7,4-4.7,8.8-4.2,13.8c-0.2,15.3,0.1,30.7-0.1,46
		c-6.5,0.6-5.9-0.1-5.8-4.2"/>
</g>
</svg>
