<?xml version="1.0" encoding="utf-8"?>
<!-- Generator: Adobe Illustrator 19.0.0, SVG Export Plug-In . SVG Version: 6.00 Build 0)  -->
<svg version="1.1" id="Layer_1" xmlns="http://www.w3.org/2000/svg" xmlns:xlink="http://www.w3.org/1999/xlink" x="0px" y="0px"
	 viewBox="0 0 70 70" style="enable-background:new 0 0 70 70;" xml:space="preserve">
<path id="XMLID_13_" class="st0" d="M10.4,10.3c0.9-1.1,2.1-2,3.2-2.9c5.6-4.3,12.6-7,19.7-7.3C42-0.4,50.9,2.6,57.6,8.4
	c0.7,0.6,1.9,1.7,1.9,1.7L35,60L10.4,10.3z M66.5,50.2l0.8-1.7c5.2-12.1,2.7-27.2-6.4-36.9L66.5,50.2z M8.9,11.9L8.9,11.9
	c-1.1,1.1-2,2.3-2.8,3.5c-5,7.2-7,16.4-5.6,25c0.4,3.2,1.5,6.4,2.8,9.4l0.2,0.4L8.9,11.9z M12.4,27.2l-0.1,0
	c-1.2,9.5-2.6,19-3.9,28.6c-0.1,0.6-0.3,1.8-0.3,1.8l0.8,0.9c0,0,2.8,2.7,4.2,4c3.4,2.7,7.2,4.7,11.3,6c2.9,0.8,6,1.6,9.1,1.5
	L12.4,27.2z M36.6,69.9c9.6-0.2,18.9-4.8,25.1-12.2c-0.8-5.5-1.5-11.1-2.3-16.6c-0.6-4.5-1.3-9-1.8-13.6c-0.1,0-0.2,0-0.2,0
	L36.6,69.9z"/>
</svg>
